<svg width="1479" height="128" viewBox="0 0 1479 128" fill="none" xmlns="http://www.w3.org/2000/svg">
<line y1="61.5" x2="569" y2="61.5" stroke="#B78168" stroke-width="5"/>
<line x1="910" y1="61.5" x2="1479" y2="61.5" stroke="#B78168" stroke-width="5"/>
<path d="M748.206 17.5H781.556V21.705C779.912 22.3817 778.172 23.0583 776.336 23.735C774.499 24.315 772.614 24.8467 770.681 25.33L745.161 64.625L774.886 111.315C779.526 112.088 783.489 113.248 786.776 114.795V119H748.206V114.795C751.686 113.055 755.359 111.895 759.226 111.315L736.316 74.92L714.276 111.46C716.306 111.75 718.287 112.137 720.221 112.62C722.154 113.007 724.039 113.732 725.876 114.795V119H692.381V114.795C694.217 113.828 696.006 113.103 697.746 112.62C699.582 112.137 701.371 111.702 703.111 111.315L731.531 67.96L704.271 25.33C702.337 24.75 700.404 24.17 698.471 23.59C696.634 23.01 694.749 22.3817 692.816 21.705V17.5H731.241V21.705C729.791 22.285 728.147 22.865 726.311 23.445C724.571 24.025 722.541 24.6533 720.221 25.33L740.521 58.1L760.241 25.33C756.277 24.46 752.266 23.2517 748.206 21.705V17.5Z" fill="#B78168"/>
</svg>
