<svg width="1166" height="785" viewBox="0 0 1166 785" fill="none" xmlns="http://www.w3.org/2000/svg">
<ellipse cx="871" cy="501" rx="295" ry="284" fill="#B78168"/>
<circle cx="140.5" cy="110.5" r="7.5" fill="#EFA37F"/>
<circle cx="140.5" cy="161.5" r="7.5" fill="#EFA37F"/>
<circle cx="140.5" cy="212.5" r="7.5" fill="#EFA37F"/>
<circle cx="140.5" cy="263.5" r="7.5" fill="#EFA37F"/>
<circle cx="140.5" cy="314.5" r="7.5" fill="#EFA37F"/>
<circle cx="140.5" cy="365.5" r="7.5" fill="#EFA37F"/>
<circle cx="140.5" cy="416.5" r="7.5" fill="#EFA37F"/>
<circle cx="140.5" cy="467.5" r="7.5" fill="#EFA37F"/>
<circle cx="140.5" cy="518.5" r="7.5" fill="#EFA37F"/>
<circle cx="140.5" cy="569.5" r="7.5" fill="#EFA37F"/>
<circle cx="140.5" cy="620.5" r="7.5" fill="#EFA37F"/>
<circle cx="140.5" cy="671.5" r="7.5" fill="#EFA37F"/>
<circle cx="242.5" cy="110.5" r="7.5" fill="#EFA37F"/>
<circle cx="242.5" cy="161.5" r="7.5" fill="#EFA37F"/>
<circle cx="242.5" cy="212.5" r="7.5" fill="#EFA37F"/>
<circle cx="242.5" cy="263.5" r="7.5" fill="#EFA37F"/>
<circle cx="242.5" cy="314.5" r="7.5" fill="#EFA37F"/>
<circle cx="242.5" cy="365.5" r="7.5" fill="#EFA37F"/>
<circle cx="242.5" cy="416.5" r="7.5" fill="#EFA37F"/>
<circle cx="242.5" cy="467.5" r="7.5" fill="#EFA37F"/>
<circle cx="242.5" cy="518.5" r="7.5" fill="#EFA37F"/>
<circle cx="242.5" cy="569.5" r="7.5" fill="#EFA37F"/>
<circle cx="242.5" cy="620.5" r="7.5" fill="#EFA37F"/>
<circle cx="242.5" cy="671.5" r="7.5" fill="#EFA37F"/>
<circle cx="344.5" cy="110.5" r="7.5" fill="#EFA37F"/>
<circle cx="344.5" cy="161.5" r="7.5" fill="#EFA37F"/>
<circle cx="344.5" cy="212.5" r="7.5" fill="#EFA37F"/>
<circle cx="344.5" cy="263.5" r="7.5" fill="#EFA37F"/>
<circle cx="344.5" cy="314.5" r="7.5" fill="#EFA37F"/>
<circle cx="344.5" cy="365.5" r="7.5" fill="#EFA37F"/>
<circle cx="344.5" cy="416.5" r="7.5" fill="#EFA37F"/>
<circle cx="344.5" cy="467.5" r="7.5" fill="#EFA37F"/>
<circle cx="344.5" cy="518.5" r="7.5" fill="#EFA37F"/>
<circle cx="344.5" cy="569.5" r="7.5" fill="#EFA37F"/>
<circle cx="344.5" cy="620.5" r="7.5" fill="#EFA37F"/>
<circle cx="344.5" cy="671.5" r="7.5" fill="#EFA37F"/>
<circle cx="446.5" cy="110.5" r="7.5" fill="#EFA37F"/>
<circle cx="446.5" cy="161.5" r="7.5" fill="#EFA37F"/>
<circle cx="446.5" cy="212.5" r="7.5" fill="#EFA37F"/>
<circle cx="446.5" cy="263.5" r="7.5" fill="#EFA37F"/>
<circle cx="446.5" cy="314.5" r="7.5" fill="#EFA37F"/>
<circle cx="446.5" cy="365.5" r="7.5" fill="#EFA37F"/>
<circle cx="446.5" cy="416.5" r="7.5" fill="#EFA37F"/>
<circle cx="446.5" cy="467.5" r="7.5" fill="#EFA37F"/>
<circle cx="446.5" cy="518.5" r="7.5" fill="#EFA37F"/>
<circle cx="446.5" cy="569.5" r="7.5" fill="#EFA37F"/>
<circle cx="446.5" cy="620.5" r="7.5" fill="#EFA37F"/>
<circle cx="446.5" cy="671.5" r="7.5" fill="#EFA37F"/>
<circle cx="191.5" cy="110.5" r="7.5" fill="#EFA37F"/>
<circle cx="191.5" cy="161.5" r="7.5" fill="#EFA37F"/>
<circle cx="191.5" cy="212.5" r="7.5" fill="#EFA37F"/>
<circle cx="191.5" cy="263.5" r="7.5" fill="#EFA37F"/>
<circle cx="191.5" cy="314.5" r="7.5" fill="#EFA37F"/>
<circle cx="191.5" cy="365.5" r="7.5" fill="#EFA37F"/>
<circle cx="191.5" cy="416.5" r="7.5" fill="#EFA37F"/>
<circle cx="191.5" cy="467.5" r="7.5" fill="#EFA37F"/>
<circle cx="191.5" cy="518.5" r="7.5" fill="#EFA37F"/>
<circle cx="191.5" cy="569.5" r="7.5" fill="#EFA37F"/>
<circle cx="191.5" cy="620.5" r="7.5" fill="#EFA37F"/>
<circle cx="191.5" cy="671.5" r="7.5" fill="#EFA37F"/>
<circle cx="293.5" cy="110.5" r="7.5" fill="#EFA37F"/>
<circle cx="293.5" cy="161.5" r="7.5" fill="#EFA37F"/>
<circle cx="293.5" cy="212.5" r="7.5" fill="#EFA37F"/>
<circle cx="293.5" cy="263.5" r="7.5" fill="#EFA37F"/>
<circle cx="293.5" cy="314.5" r="7.5" fill="#EFA37F"/>
<circle cx="293.5" cy="365.5" r="7.5" fill="#EFA37F"/>
<circle cx="293.5" cy="416.5" r="7.5" fill="#EFA37F"/>
<circle cx="293.5" cy="467.5" r="7.5" fill="#EFA37F"/>
<circle cx="293.5" cy="518.5" r="7.5" fill="#EFA37F"/>
<circle cx="293.5" cy="569.5" r="7.5" fill="#EFA37F"/>
<circle cx="293.5" cy="620.5" r="7.5" fill="#EFA37F"/>
<circle cx="293.5" cy="671.5" r="7.5" fill="#EFA37F"/>
<circle cx="395.5" cy="110.5" r="7.5" fill="#EFA37F"/>
<circle cx="395.5" cy="161.5" r="7.5" fill="#EFA37F"/>
<circle cx="395.5" cy="212.5" r="7.5" fill="#EFA37F"/>
<circle cx="395.5" cy="263.5" r="7.5" fill="#EFA37F"/>
<circle cx="395.5" cy="314.5" r="7.5" fill="#EFA37F"/>
<circle cx="395.5" cy="365.5" r="7.5" fill="#EFA37F"/>
<circle cx="395.5" cy="416.5" r="7.5" fill="#EFA37F"/>
<circle cx="395.5" cy="467.5" r="7.5" fill="#EFA37F"/>
<circle cx="395.5" cy="518.5" r="7.5" fill="#EFA37F"/>
<circle cx="395.5" cy="569.5" r="7.5" fill="#EFA37F"/>
<circle cx="395.5" cy="620.5" r="7.5" fill="#EFA37F"/>
<circle cx="395.5" cy="671.5" r="7.5" fill="#EFA37F"/>
<circle cx="497.5" cy="110.5" r="7.5" fill="#EFA37F"/>
<circle cx="497.5" cy="161.5" r="7.5" fill="#EFA37F"/>
<circle cx="497.5" cy="212.5" r="7.5" fill="#EFA37F"/>
<circle cx="497.5" cy="263.5" r="7.5" fill="#EFA37F"/>
<circle cx="497.5" cy="314.5" r="7.5" fill="#EFA37F"/>
<circle cx="497.5" cy="365.5" r="7.5" fill="#EFA37F"/>
<circle cx="497.5" cy="416.5" r="7.5" fill="#EFA37F"/>
<circle cx="497.5" cy="467.5" r="7.5" fill="#EFA37F"/>
<circle cx="497.5" cy="518.5" r="7.5" fill="#EFA37F"/>
<circle cx="497.5" cy="569.5" r="7.5" fill="#EFA37F"/>
<circle cx="497.5" cy="620.5" r="7.5" fill="#EFA37F"/>
<circle cx="497.5" cy="671.5" r="7.5" fill="#EFA37F"/>
</svg>
