<svg width="1288" height="939" viewBox="0 0 1288 939" fill="none" xmlns="http://www.w3.org/2000/svg">
<ellipse cx="1006" cy="409" rx="421" ry="409" fill="#B78168"/>
<circle cx="140.5" cy="264.5" r="7.5" fill="#EFA37F"/>
<circle cx="140.5" cy="315.5" r="7.5" fill="#EFA37F"/>
<circle cx="140.5" cy="366.5" r="7.5" fill="#EFA37F"/>
<circle cx="140.5" cy="417.5" r="7.5" fill="#EFA37F"/>
<circle cx="140.5" cy="468.5" r="7.5" fill="#EFA37F"/>
<circle cx="140.5" cy="519.5" r="7.5" fill="#EFA37F"/>
<circle cx="140.5" cy="570.5" r="7.5" fill="#EFA37F"/>
<circle cx="140.5" cy="621.5" r="7.5" fill="#EFA37F"/>
<circle cx="140.5" cy="672.5" r="7.5" fill="#EFA37F"/>
<circle cx="140.5" cy="723.5" r="7.5" fill="#EFA37F"/>
<circle cx="140.5" cy="774.5" r="7.5" fill="#EFA37F"/>
<circle cx="140.5" cy="825.5" r="7.5" fill="#EFA37F"/>
<circle cx="242.5" cy="264.5" r="7.5" fill="#EFA37F"/>
<circle cx="242.5" cy="315.5" r="7.5" fill="#EFA37F"/>
<circle cx="242.5" cy="366.5" r="7.5" fill="#EFA37F"/>
<circle cx="242.5" cy="417.5" r="7.5" fill="#EFA37F"/>
<circle cx="242.5" cy="468.5" r="7.5" fill="#EFA37F"/>
<circle cx="242.5" cy="519.5" r="7.5" fill="#EFA37F"/>
<circle cx="242.5" cy="570.5" r="7.5" fill="#EFA37F"/>
<circle cx="242.5" cy="621.5" r="7.5" fill="#EFA37F"/>
<circle cx="242.5" cy="672.5" r="7.5" fill="#EFA37F"/>
<circle cx="242.5" cy="723.5" r="7.5" fill="#EFA37F"/>
<circle cx="242.5" cy="774.5" r="7.5" fill="#EFA37F"/>
<circle cx="242.5" cy="825.5" r="7.5" fill="#EFA37F"/>
<circle cx="344.5" cy="264.5" r="7.5" fill="#EFA37F"/>
<circle cx="344.5" cy="315.5" r="7.5" fill="#EFA37F"/>
<circle cx="344.5" cy="366.5" r="7.5" fill="#EFA37F"/>
<circle cx="344.5" cy="417.5" r="7.5" fill="#EFA37F"/>
<circle cx="344.5" cy="468.5" r="7.5" fill="#EFA37F"/>
<circle cx="344.5" cy="519.5" r="7.5" fill="#EFA37F"/>
<circle cx="344.5" cy="570.5" r="7.5" fill="#EFA37F"/>
<circle cx="344.5" cy="621.5" r="7.5" fill="#EFA37F"/>
<circle cx="344.5" cy="672.5" r="7.5" fill="#EFA37F"/>
<circle cx="344.5" cy="723.5" r="7.5" fill="#EFA37F"/>
<circle cx="344.5" cy="774.5" r="7.5" fill="#EFA37F"/>
<circle cx="344.5" cy="825.5" r="7.5" fill="#EFA37F"/>
<circle cx="446.5" cy="264.5" r="7.5" fill="#EFA37F"/>
<circle cx="446.5" cy="315.5" r="7.5" fill="#EFA37F"/>
<circle cx="446.5" cy="366.5" r="7.5" fill="#EFA37F"/>
<circle cx="446.5" cy="417.5" r="7.5" fill="#EFA37F"/>
<circle cx="446.5" cy="468.5" r="7.5" fill="#EFA37F"/>
<circle cx="446.5" cy="519.5" r="7.5" fill="#EFA37F"/>
<circle cx="446.5" cy="570.5" r="7.5" fill="#EFA37F"/>
<circle cx="446.5" cy="621.5" r="7.5" fill="#EFA37F"/>
<circle cx="446.5" cy="672.5" r="7.5" fill="#EFA37F"/>
<circle cx="446.5" cy="723.5" r="7.5" fill="#EFA37F"/>
<circle cx="446.5" cy="774.5" r="7.5" fill="#EFA37F"/>
<circle cx="446.5" cy="825.5" r="7.5" fill="#EFA37F"/>
<circle cx="191.5" cy="264.5" r="7.5" fill="#EFA37F"/>
<circle cx="191.5" cy="315.5" r="7.5" fill="#EFA37F"/>
<circle cx="191.5" cy="366.5" r="7.5" fill="#EFA37F"/>
<circle cx="191.5" cy="417.5" r="7.5" fill="#EFA37F"/>
<circle cx="191.5" cy="468.5" r="7.5" fill="#EFA37F"/>
<circle cx="191.5" cy="519.5" r="7.5" fill="#EFA37F"/>
<circle cx="191.5" cy="570.5" r="7.5" fill="#EFA37F"/>
<circle cx="191.5" cy="621.5" r="7.5" fill="#EFA37F"/>
<circle cx="191.5" cy="672.5" r="7.5" fill="#EFA37F"/>
<circle cx="191.5" cy="723.5" r="7.5" fill="#EFA37F"/>
<circle cx="191.5" cy="774.5" r="7.5" fill="#EFA37F"/>
<circle cx="191.5" cy="825.5" r="7.5" fill="#EFA37F"/>
<circle cx="293.5" cy="264.5" r="7.5" fill="#EFA37F"/>
<circle cx="293.5" cy="315.5" r="7.5" fill="#EFA37F"/>
<circle cx="293.5" cy="366.5" r="7.5" fill="#EFA37F"/>
<circle cx="293.5" cy="417.5" r="7.5" fill="#EFA37F"/>
<circle cx="293.5" cy="468.5" r="7.5" fill="#EFA37F"/>
<circle cx="293.5" cy="519.5" r="7.5" fill="#EFA37F"/>
<circle cx="293.5" cy="570.5" r="7.5" fill="#EFA37F"/>
<circle cx="293.5" cy="621.5" r="7.5" fill="#EFA37F"/>
<circle cx="293.5" cy="672.5" r="7.5" fill="#EFA37F"/>
<circle cx="293.5" cy="723.5" r="7.5" fill="#EFA37F"/>
<circle cx="293.5" cy="774.5" r="7.5" fill="#EFA37F"/>
<circle cx="293.5" cy="825.5" r="7.5" fill="#EFA37F"/>
<circle cx="395.5" cy="264.5" r="7.5" fill="#EFA37F"/>
<circle cx="395.5" cy="315.5" r="7.5" fill="#EFA37F"/>
<circle cx="395.5" cy="366.5" r="7.5" fill="#EFA37F"/>
<circle cx="395.5" cy="417.5" r="7.5" fill="#EFA37F"/>
<circle cx="395.5" cy="468.5" r="7.5" fill="#EFA37F"/>
<circle cx="395.5" cy="519.5" r="7.5" fill="#EFA37F"/>
<circle cx="395.5" cy="570.5" r="7.5" fill="#EFA37F"/>
<circle cx="395.5" cy="621.5" r="7.5" fill="#EFA37F"/>
<circle cx="395.5" cy="672.5" r="7.5" fill="#EFA37F"/>
<circle cx="395.5" cy="723.5" r="7.5" fill="#EFA37F"/>
<circle cx="395.5" cy="774.5" r="7.5" fill="#EFA37F"/>
<circle cx="395.5" cy="825.5" r="7.5" fill="#EFA37F"/>
<circle cx="497.5" cy="264.5" r="7.5" fill="#EFA37F"/>
<circle cx="497.5" cy="315.5" r="7.5" fill="#EFA37F"/>
<circle cx="497.5" cy="366.5" r="7.5" fill="#EFA37F"/>
<circle cx="497.5" cy="417.5" r="7.5" fill="#EFA37F"/>
<circle cx="497.5" cy="468.5" r="7.5" fill="#EFA37F"/>
<circle cx="497.5" cy="519.5" r="7.5" fill="#EFA37F"/>
<circle cx="497.5" cy="570.5" r="7.5" fill="#EFA37F"/>
<circle cx="497.5" cy="621.5" r="7.5" fill="#EFA37F"/>
<circle cx="497.5" cy="672.5" r="7.5" fill="#EFA37F"/>
<circle cx="497.5" cy="723.5" r="7.5" fill="#EFA37F"/>
<circle cx="497.5" cy="774.5" r="7.5" fill="#EFA37F"/>
<circle cx="497.5" cy="825.5" r="7.5" fill="#EFA37F"/>
</svg>
