<svg width="671" height="461" viewBox="0 0 671 461" fill="none" xmlns="http://www.w3.org/2000/svg">
<rect width="655" height="227.97" transform="matrix(-1 0 0 1 663 145.221)" stroke="#E6E6E6" stroke-width="15"/>
<path d="M593.806 377.002L525.457 377.002L593.806 447.488L593.806 377.002Z" fill="#E6E6E6"/>
<rect width="165.1" height="139.703" transform="matrix(-1 0 0 1 278.024 66.9819)" fill="white"/>
<path d="M171.338 184.668C166.938 184.668 163.338 183.768 160.538 181.968C157.738 180.168 155.438 177.868 153.638 175.068C151.638 171.668 150.238 168.168 149.438 164.568C148.838 160.768 148.538 157.668 148.538 155.268C148.538 145.468 151.038 136.568 156.038 128.568C161.038 120.568 168.838 114.068 179.438 109.068L182.138 114.468C175.938 117.068 170.538 121.168 165.938 126.768C161.538 132.368 159.338 138.068 159.338 143.868C159.338 146.268 159.638 148.368 160.238 150.168C163.438 147.568 167.138 146.268 171.338 146.268C176.538 146.268 181.038 147.968 184.838 151.368C188.638 154.768 190.538 159.468 190.538 165.468C190.538 171.068 188.638 175.668 184.838 179.268C181.038 182.868 176.538 184.668 171.338 184.668ZM222.338 184.668C217.938 184.668 214.338 183.768 211.538 181.968C208.738 180.168 206.438 177.868 204.638 175.068C202.638 171.668 201.238 168.168 200.438 164.568C199.838 160.768 199.538 157.668 199.538 155.268C199.538 145.468 202.038 136.568 207.038 128.568C212.038 120.568 219.838 114.068 230.438 109.068L233.138 114.468C226.938 117.068 221.538 121.168 216.938 126.768C212.538 132.368 210.338 138.068 210.338 143.868C210.338 146.268 210.638 148.368 211.238 150.168C214.438 147.568 218.138 146.268 222.338 146.268C227.538 146.268 232.038 147.968 235.838 151.368C239.638 154.768 241.538 159.468 241.538 165.468C241.538 171.068 239.638 175.668 235.838 179.268C232.038 182.868 227.538 184.668 222.338 184.668Z" fill="black" fill-opacity="0.1"/>
</svg>
