<svg width="671" height="395" viewBox="0 0 671 395" fill="none" xmlns="http://www.w3.org/2000/svg">
<rect width="655" height="227.97" transform="matrix(-1 0 0 1 663 79.2214)" stroke="#E6E6E6" stroke-width="15"/>
<path d="M593.806 311.002L525.457 311.002L593.806 381.488L593.806 311.002Z" fill="#E6E6E6"/>
<rect width="165.1" height="139.703" transform="matrix(-1 0 0 1 278.024 0.981934)" fill="white"/>
<path d="M171.605 115C167.205 115 163.605 114.1 160.805 112.3C158.005 110.5 155.705 108.2 153.905 105.4C151.905 102 150.505 98.5 149.705 94.9C149.105 91.1 148.805 88 148.805 85.6C148.805 75.8 151.305 66.9 156.305 58.9C161.305 50.9 169.105 44.4 179.705 39.4L182.405 44.8C176.205 47.4 170.805 51.5 166.205 57.1C161.805 62.7 159.605 68.4 159.605 74.2C159.605 76.6 159.905 78.7 160.505 80.5C163.705 77.9 167.405 76.6 171.605 76.6C176.805 76.6 181.305 78.3 185.105 81.7C188.905 85.1 190.805 89.8 190.805 95.8C190.805 101.4 188.905 106 185.105 109.6C181.305 113.2 176.805 115 171.605 115ZM222.605 115C218.205 115 214.605 114.1 211.805 112.3C209.005 110.5 206.705 108.2 204.905 105.4C202.905 102 201.505 98.5 200.705 94.9C200.105 91.1 199.805 88 199.805 85.6C199.805 75.8 202.305 66.9 207.305 58.9C212.305 50.9 220.105 44.4 230.705 39.4L233.405 44.8C227.205 47.4 221.805 51.5 217.205 57.1C212.805 62.7 210.605 68.4 210.605 74.2C210.605 76.6 210.905 78.7 211.505 80.5C214.705 77.9 218.405 76.6 222.605 76.6C227.805 76.6 232.305 78.3 236.105 81.7C239.905 85.1 241.805 89.8 241.805 95.8C241.805 101.4 239.905 106 236.105 109.6C232.305 113.2 227.805 115 222.605 115Z" fill="black" fill-opacity="0.1"/>
</svg>
