<svg width="671" height="608" viewBox="0 0 671 608" fill="none" xmlns="http://www.w3.org/2000/svg">
<rect width="655" height="450" transform="matrix(-1 0 0 1 663 76)" stroke="#E6E6E6" stroke-width="15"/>
<path d="M595.349 526.46L527 526.46L595.349 594.618L595.349 526.46Z" fill="#E6E6E6"/>
<rect width="165.1" height="135.087" transform="matrix(-1 0 0 1 278.024 0)" fill="white"/>
<path d="M171.605 109.705C167.205 109.705 163.605 108.805 160.805 107.005C158.005 105.205 155.705 102.905 153.905 100.105C151.905 96.7046 150.505 93.2046 149.705 89.6046C149.105 85.8046 148.805 82.7046 148.805 80.3046C148.805 70.5046 151.305 61.6046 156.305 53.6046C161.305 45.6046 169.105 39.1046 179.705 34.1046L182.405 39.5046C176.205 42.1046 170.805 46.2046 166.205 51.8046C161.805 57.4046 159.605 63.1046 159.605 68.9046C159.605 71.3046 159.905 73.4046 160.505 75.2046C163.705 72.6046 167.405 71.3046 171.605 71.3046C176.805 71.3046 181.305 73.0046 185.105 76.4046C188.905 79.8046 190.805 84.5046 190.805 90.5046C190.805 96.1046 188.905 100.705 185.105 104.305C181.305 107.905 176.805 109.705 171.605 109.705ZM222.605 109.705C218.205 109.705 214.605 108.805 211.805 107.005C209.005 105.205 206.705 102.905 204.905 100.105C202.905 96.7046 201.505 93.2046 200.705 89.6046C200.105 85.8046 199.805 82.7046 199.805 80.3046C199.805 70.5046 202.305 61.6046 207.305 53.6046C212.305 45.6046 220.105 39.1046 230.705 34.1046L233.405 39.5046C227.205 42.1046 221.805 46.2046 217.205 51.8046C212.805 57.4046 210.605 63.1046 210.605 68.9046C210.605 71.3046 210.905 73.4046 211.505 75.2046C214.705 72.6046 218.405 71.3046 222.605 71.3046C227.805 71.3046 232.305 73.0046 236.105 76.4046C239.905 79.8046 241.805 84.5046 241.805 90.5046C241.805 96.1046 239.905 100.705 236.105 104.305C232.305 107.905 227.805 109.705 222.605 109.705Z" fill="black" fill-opacity="0.1"/>
</svg>
